<svg xmlns="http://www.w3.org/2000/svg" viewBox="0 0 1600 1450" font-family="Inter, system-ui, sans-serif">
  <defs>
    <linearGradient id="bgDigital" x1="0" x2="0" y1="0" y2="1">
      <stop offset="0" stop-color="#f4f4f4"/>
      <stop offset="1" stop-color="#e6e6e6"/>
    </linearGradient>
  </defs>
  <rect width="1600" height="1450" fill="url(#bgDigital)"/>

  <text x="60" y="60" font-size="32" font-weight="700" fill="#1a2332">Severance — Digital Wireframes (v3)</text>
  <text x="60" y="92" font-size="15" fill="#5a6470">Mid-fi · grayscale · 8 screens · post-iteration · ready for hi-fi</text>

  <!-- 8 phone wireframes, 4 across × 2 rows -->
  <!-- Reusable: each phone is ~340w × 600h, padding 50, starting at x=60 y=140 -->

  <!-- ===== FRAME 1: Splash ===== -->
  <g transform="translate(60 140)">
    <rect x="0" y="0" width="320" height="600" rx="34" fill="#fff" stroke="#1a2332" stroke-width="1.4"/>
    <rect x="120" y="14" width="80" height="14" rx="6" fill="#1a2332"/>
    <text x="22" y="50" font-size="11" fill="#5a6470">9:41</text>
    <text x="298" y="50" font-size="11" fill="#5a6470" text-anchor="end">100%</text>

    <text x="160" y="180" font-size="32" font-weight="800" fill="#1a2332" text-anchor="middle">severance</text>
    <line x1="120" y1="196" x2="200" y2="196" stroke="#1a2332" stroke-width="2"/>
    <text x="160" y="232" font-size="14" fill="#5a6470" text-anchor="middle">your first 30 days,</text>
    <text x="160" y="252" font-size="14" fill="#5a6470" text-anchor="middle">handled.</text>

    <rect x="36" y="320" width="248" height="80" rx="10" fill="#f5f0e8" stroke="#cdc4b3"/>
    <text x="160" y="350" font-size="14" font-weight="600" fill="#1a2332" text-anchor="middle">we're sorry.</text>
    <text x="160" y="372" font-size="13" fill="#5a6470" text-anchor="middle">let's make this</text>
    <text x="160" y="390" font-size="13" fill="#5a6470" text-anchor="middle">a little calmer.</text>

    <rect x="36" y="470" width="248" height="50" rx="25" fill="#1a2332"/>
    <text x="160" y="502" font-size="15" font-weight="700" fill="#fff" text-anchor="middle">Begin</text>
    <text x="160" y="552" font-size="11" fill="#5a6470" text-anchor="middle">why we built this</text>
  </g>
  <text x="60" y="765" font-size="12" font-weight="700" fill="#1a2332">01 · Splash / onboarding entry</text>

  <!-- ===== FRAME 2: Onboarding step 9 ===== -->
  <g transform="translate(440 140)">
    <rect x="0" y="0" width="320" height="600" rx="34" fill="#fff" stroke="#1a2332" stroke-width="1.4"/>
    <rect x="120" y="14" width="80" height="14" rx="6" fill="#1a2332"/>
    <text x="22" y="50" font-size="11" fill="#5a6470">9:48</text>
    <text x="298" y="50" font-size="11" fill="#5a6470" text-anchor="end">step 9 of 9</text>

    <!-- progress -->
    <g transform="translate(36 70)">
      <rect x="0" y="0" width="248" height="6" rx="3" fill="#e5dec7"/>
      <rect x="0" y="0" width="248" height="6" rx="3" fill="#1a2332"/>
    </g>

    <text x="160" y="120" font-size="20" font-weight="800" fill="#1a2332" text-anchor="middle">What feels most</text>
    <text x="160" y="146" font-size="20" font-weight="800" fill="#1a2332" text-anchor="middle">urgent right now?</text>
    <text x="160" y="174" font-size="12" fill="#5a6470" text-anchor="middle">Choose any · we'll plan around them</text>

    <g font-size="13" fill="#1a2332">
      <rect x="30" y="200" width="260" height="44" rx="22" fill="#1a2332"/>
      <text x="50" y="227" fill="#fff">☑ Filing for unemployment</text>

      <rect x="30" y="252" width="260" height="44" rx="22" fill="#1a2332"/>
      <text x="50" y="279" fill="#fff">☑ Health insurance</text>

      <rect x="30" y="304" width="260" height="44" rx="22" fill="#fff" stroke="#1a2332" stroke-width="1.5"/>
      <text x="50" y="331">☐ Severance review</text>

      <rect x="30" y="356" width="260" height="44" rx="22" fill="#1a2332"/>
      <text x="50" y="383" fill="#fff">☑ Money / runway</text>

      <rect x="30" y="408" width="260" height="44" rx="22" fill="#fff" stroke="#1a2332" stroke-width="1.5"/>
      <text x="50" y="435">☐ Honestly, I just need a moment</text>
    </g>

    <rect x="36" y="490" width="248" height="50" rx="25" fill="#1a2332"/>
    <text x="160" y="522" font-size="15" font-weight="700" fill="#fff" text-anchor="middle">Build my plan →</text>
  </g>
  <text x="440" y="765" font-size="12" font-weight="700" fill="#1a2332">02 · Onboarding step 9 — urgency</text>

  <!-- ===== FRAME 3: Home Day 4 ===== -->
  <g transform="translate(820 140)">
    <rect x="0" y="0" width="320" height="600" rx="34" fill="#fff" stroke="#1a2332" stroke-width="1.4"/>
    <rect x="120" y="14" width="80" height="14" rx="6" fill="#1a2332"/>
    <text x="22" y="50" font-size="11" fill="#5a6470">9:14</text>
    <text x="298" y="50" font-size="11" fill="#5a6470" text-anchor="end">day 4 / 30</text>

    <text x="22" y="86" font-size="18" font-weight="700" fill="#1a2332">Good morning, Maya</text>
    <text x="22" y="106" font-size="12" fill="#5a6470">It's day 4. Paperwork day.</text>

    <!-- Day timeline -->
    <g transform="translate(22 130)">
      <rect x="0" y="0" width="276" height="36" rx="8" fill="#f5f0e8"/>
      <g>
        <circle cx="14" cy="18" r="3" fill="#1a2332"/>
        <circle cx="28" cy="18" r="3" fill="#1a2332"/>
        <circle cx="42" cy="18" r="3" fill="#1a2332"/>
        <circle cx="56" cy="18" r="6" fill="#c46a5a"/>
        <circle cx="70" cy="18" r="3" fill="#a89e8a"/>
        <circle cx="84" cy="18" r="3" fill="#a89e8a"/>
        <circle cx="98" cy="18" r="3" fill="#a89e8a"/>
        <circle cx="112" cy="18" r="3" fill="#a89e8a"/>
        <circle cx="126" cy="18" r="3" fill="#a89e8a"/>
        <circle cx="140" cy="18" r="3" fill="#a89e8a"/>
      </g>
      <text x="262" y="22" font-size="10" fill="#5a6470" text-anchor="end">··· 30</text>
    </g>

    <!-- Today's action -->
    <rect x="22" y="184" width="276" height="140" rx="14" fill="#1a2332"/>
    <text x="36" y="206" font-size="10" font-weight="700" fill="#d4a259" letter-spacing="1">TODAY · DO THIS ONE THING</text>
    <text x="36" y="240" font-size="20" font-weight="800" fill="#fff">File your CA</text>
    <text x="36" y="266" font-size="20" font-weight="800" fill="#fff">unemployment claim</text>
    <text x="36" y="292" font-size="12" fill="#bfae90">~ 18 min · we'll guide you</text>
    <rect x="186" y="292" width="100" height="28" rx="14" fill="#fff"/>
    <text x="236" y="311" font-size="13" font-weight="700" fill="#1a2332" text-anchor="middle">Start →</text>

    <!-- Runway tile -->
    <rect x="22" y="344" width="132" height="100" rx="12" fill="#fff" stroke="#cdc4b3" stroke-width="1.5"/>
    <text x="36" y="364" font-size="10" font-weight="700" fill="#5a6470" letter-spacing="1">RUNWAY</text>
    <text x="36" y="406" font-size="32" font-weight="800" fill="#1a2332">5.7</text>
    <text x="84" y="406" font-size="13" fill="#5a6470">months</text>
    <text x="36" y="424" font-size="10" fill="#3e6e63">↑ extend by $284</text>

    <!-- Calm tile -->
    <rect x="166" y="344" width="132" height="100" rx="12" fill="#f5f0e8" stroke="#cdc4b3" stroke-width="1.5"/>
    <text x="180" y="364" font-size="10" font-weight="700" fill="#5a6470" letter-spacing="1">CHECK-IN</text>
    <text x="180" y="394" font-size="12" fill="#1a2332">how is today,</text>
    <text x="180" y="412" font-size="12" fill="#1a2332">in one word?</text>

    <!-- COBRA banner -->
    <rect x="22" y="460" width="276" height="40" rx="10" fill="#fff7e8" stroke="#d4a259" stroke-width="1.2"/>
    <text x="36" y="484" font-size="12" fill="#7a5a1a">⏳ COBRA election: 18 days left</text>

    <!-- Bottom nav -->
    <line x1="0" y1="540" x2="320" y2="540" stroke="#cdc4b3"/>
    <g font-size="10" fill="#1a2332" text-anchor="middle">
      <text x="48" y="572">Home</text>
      <text x="112" y="572">Plan</text>
      <text x="172" y="572">Money</text>
      <text x="232" y="572">Docs</text>
      <text x="292" y="572">More</text>
    </g>
  </g>
  <text x="820" y="765" font-size="12" font-weight="700" fill="#1a2332">03 · Home — Day 4</text>

  <!-- ===== FRAME 4: Home Day 2 calm ===== -->
  <g transform="translate(1200 140)">
    <rect x="0" y="0" width="320" height="600" rx="34" fill="#fff" stroke="#1a2332" stroke-width="1.4"/>
    <rect x="120" y="14" width="80" height="14" rx="6" fill="#1a2332"/>
    <text x="22" y="50" font-size="11" fill="#5a6470">8:02</text>
    <text x="298" y="50" font-size="11" fill="#5a6470" text-anchor="end">day 2 / 30</text>

    <text x="22" y="86" font-size="18" font-weight="700" fill="#1a2332">Good morning, Joanne</text>
    <text x="22" y="106" font-size="12" fill="#5a6470">It's day 2. The world can wait.</text>

    <g transform="translate(22 130)">
      <rect x="0" y="0" width="276" height="36" rx="8" fill="#f5f0e8"/>
      <circle cx="14" cy="18" r="3" fill="#1a2332"/>
      <circle cx="28" cy="18" r="6" fill="#c46a5a"/>
      <circle cx="42" cy="18" r="3" fill="#a89e8a"/>
    </g>

    <rect x="22" y="200" width="276" height="190" rx="14" fill="#fdf6e6" stroke="#cdc4b3" stroke-width="1.2"/>
    <text x="160" y="240" font-size="20" font-weight="800" fill="#1a2332" text-anchor="middle">Today: rest.</text>
    <text x="160" y="278" font-size="13" fill="#5a6470" text-anchor="middle">Save your work contacts</text>
    <text x="160" y="296" font-size="13" fill="#5a6470" text-anchor="middle">if you haven't yet (4 min).</text>
    <text x="160" y="338" font-size="12" fill="#3e6e63" text-anchor="middle">We'll surface paperwork on</text>
    <text x="160" y="356" font-size="12" fill="#3e6e63" text-anchor="middle">day 4.</text>

    <text x="160" y="450" font-size="12" fill="#a89e8a" text-anchor="middle" font-style="italic">— that's all for now —</text>

    <line x1="0" y1="540" x2="320" y2="540" stroke="#cdc4b3"/>
    <g font-size="10" fill="#1a2332" text-anchor="middle">
      <text x="48" y="572">Home</text>
      <text x="112" y="572">Plan</text>
      <text x="172" y="572">Money</text>
      <text x="232" y="572">Docs</text>
      <text x="292" y="572">More</text>
    </g>
  </g>
  <text x="1200" y="765" font-size="12" font-weight="700" fill="#1a2332">04 · Home — Day 2 calm mode</text>

  <!-- ===== FRAME 5: UI Filing — Section 3 ===== -->
  <g transform="translate(60 800)">
    <rect x="0" y="0" width="320" height="600" rx="34" fill="#fff" stroke="#1a2332" stroke-width="1.4"/>
    <rect x="120" y="14" width="80" height="14" rx="6" fill="#1a2332"/>
    <text x="22" y="50" font-size="11" fill="#5a6470">10:22</text>
    <text x="298" y="50" font-size="11" fill="#5a6470" text-anchor="end">section 3 / 5</text>

    <text x="22" y="84" font-size="12" fill="#5a6470">← UI filing helper · CA</text>
    <text x="22" y="118" font-size="20" font-weight="800" fill="#1a2332">Reason for separation</text>

    <text x="22" y="146" font-size="12" fill="#5a6470">How you describe this matters.</text>
    <text x="22" y="164" font-size="12" fill="#5a6470">We'll flag risky phrasing.</text>

    <rect x="22" y="194" width="276" height="100" rx="10" fill="#fff" stroke="#cdc4b3" stroke-width="1.2"/>
    <text x="36" y="216" font-size="10" font-weight="700" fill="#5a6470" letter-spacing="1">YOUR ANSWER (auto-filled)</text>
    <text x="36" y="252" font-size="14" font-weight="700" fill="#1a2332">"laid off — position</text>
    <text x="36" y="272" font-size="14" font-weight="700" fill="#1a2332">eliminated, no cause"</text>

    <rect x="22" y="312" width="276" height="80" rx="10" fill="#e8f0ed" stroke="#9ec4b9"/>
    <text x="36" y="334" font-size="10" font-weight="700" fill="#3e6e63" letter-spacing="1">✓ THIS PHRASING IS WELL-ALIGNED</text>
    <text x="36" y="354" font-size="12" fill="#1a2332">"Position eliminated" maps cleanly</text>
    <text x="36" y="372" font-size="12" fill="#1a2332">to EDD lay-off categories.</text>

    <rect x="22" y="408" width="276" height="62" rx="10" fill="#fbeeec" stroke="#e8c8c0"/>
    <text x="36" y="430" font-size="10" font-weight="700" fill="#7a3d3d" letter-spacing="1">⚠ COMMON REJECTION TRIGGER</text>
    <text x="36" y="450" font-size="12" fill="#1a2332">Don't write "I quit" or</text>
    <text x="36" y="466" font-size="12" fill="#1a2332">"chose to leave."</text>

    <rect x="22" y="490" width="180" height="44" rx="22" fill="#1a2332"/>
    <text x="112" y="518" font-size="14" font-weight="700" fill="#fff" text-anchor="middle">Continue →</text>
    <rect x="216" y="490" width="80" height="44" rx="22" fill="#fff" stroke="#1a2332" stroke-width="1.5"/>
    <text x="256" y="518" font-size="13" font-weight="700" fill="#1a2332" text-anchor="middle">Pause</text>
  </g>
  <text x="60" y="1425" font-size="12" font-weight="700" fill="#1a2332">05 · UI Filing Helper · Section 3</text>

  <!-- ===== FRAME 6: Severance clause card ===== -->
  <g transform="translate(440 800)">
    <rect x="0" y="0" width="320" height="600" rx="34" fill="#fff" stroke="#1a2332" stroke-width="1.4"/>
    <rect x="120" y="14" width="80" height="14" rx="6" fill="#1a2332"/>
    <text x="22" y="50" font-size="11" fill="#5a6470">11:08</text>
    <text x="298" y="50" font-size="11" fill="#5a6470" text-anchor="end">clause 5 / 9</text>

    <text x="22" y="84" font-size="12" fill="#5a6470">← Severance review</text>

    <rect x="22" y="100" width="276" height="400" rx="16" fill="#fdf6e6" stroke="#cdc4b3" stroke-width="1.4"/>

    <text x="36" y="124" font-size="10" font-weight="700" fill="#5a6470" letter-spacing="1">CLAUSE TYPE</text>
    <text x="36" y="156" font-size="22" font-weight="800" fill="#1a2332">Non-solicit</text>

    <rect x="36" y="170" width="120" height="22" rx="11" fill="#7a3d3d"/>
    <text x="96" y="186" font-size="11" font-weight="700" fill="#fff" text-anchor="middle">⚠ unusual · CA</text>

    <text x="36" y="222" font-size="10" font-weight="700" fill="#5a6470" letter-spacing="1">VERBATIM</text>
    <text x="36" y="244" font-size="11" fill="#1a2332">"For 12 months, you may not</text>
    <text x="36" y="260" font-size="11" fill="#1a2332">solicit, contact, or hire any</text>
    <text x="36" y="276" font-size="11" fill="#1a2332">employee or contractor of</text>
    <text x="36" y="292" font-size="11" fill="#1a2332">[Company]..."</text>

    <text x="36" y="320" font-size="10" font-weight="700" fill="#3e6e63" letter-spacing="1">PLAIN ENGLISH</text>
    <text x="36" y="340" font-size="12" fill="#1a2332">You can't reach out to former</text>
    <text x="36" y="356" font-size="12" fill="#1a2332">colleagues for jobs for a year.</text>
    <text x="36" y="372" font-size="12" fill="#1a2332">In CA, this is broader than</text>
    <text x="36" y="388" font-size="12" fill="#1a2332">typical — state law limits</text>
    <text x="36" y="404" font-size="12" fill="#1a2332">enforceability.</text>

    <text x="36" y="432" font-size="10" font-weight="700" fill="#5a3a4f" letter-spacing="1">CONSIDER ASKING</text>
    <text x="36" y="452" font-size="12" fill="#1a2332">"Can we narrow this to direct</text>
    <text x="36" y="468" font-size="12" fill="#1a2332">reports only?"</text>

    <text x="36" y="540" font-size="13" font-weight="700" fill="#1a2332">← back</text>
    <text x="284" y="540" font-size="13" font-weight="700" fill="#1a2332" text-anchor="end">next clause →</text>
    <line x1="22" y1="552" x2="298" y2="552" stroke="#cdc4b3"/>
    <text x="160" y="572" font-size="10" fill="#5a6470" text-anchor="middle">●●●●● ○○○○ 5/9</text>
  </g>
  <text x="440" y="1425" font-size="12" font-weight="700" fill="#1a2332">06 · Severance Reviewer · Clause card</text>

  <!-- ===== FRAME 7: Runway expanded ===== -->
  <g transform="translate(820 800)">
    <rect x="0" y="0" width="320" height="600" rx="34" fill="#fff" stroke="#1a2332" stroke-width="1.4"/>
    <rect x="120" y="14" width="80" height="14" rx="6" fill="#1a2332"/>
    <text x="22" y="50" font-size="11" fill="#5a6470">3:14</text>
    <text x="298" y="50" font-size="11" fill="#5a6470" text-anchor="end">money</text>

    <text x="22" y="84" font-size="12" fill="#5a6470">← back</text>
    <text x="22" y="118" font-size="20" font-weight="800" fill="#1a2332">Your runway</text>

    <text x="160" y="220" font-size="64" font-weight="800" fill="#1a2332" text-anchor="middle">5.7</text>
    <text x="160" y="248" font-size="18" font-weight="600" fill="#5a6470" text-anchor="middle">months</text>
    <text x="160" y="272" font-size="12" fill="#5a6470" text-anchor="middle">at your current burn rate</text>

    <g transform="translate(22 300)">
      <rect x="0" y="0" width="276" height="14" rx="7" fill="#e5dec7"/>
      <rect x="0" y="0" width="180" height="14" rx="7" fill="#1a2332"/>
    </g>
    <text x="22" y="334" font-size="11" fill="#5a6470">today · day 4</text>
    <text x="298" y="334" font-size="11" fill="#5a6470" text-anchor="end">runs dry · oct 14</text>

    <text x="22" y="378" font-size="11" font-weight="700" fill="#3e6e63" letter-spacing="1">EXTEND BY $284 / mo · +0.4 mo</text>
    <rect x="22" y="392" width="276" height="50" rx="10" fill="#e8f0ed" stroke="#9ec4b9"/>
    <text x="36" y="414" font-size="13" fill="#1a2332">Cancel: streaming, meal kit</text>
    <text x="36" y="432" font-size="11" fill="#3e6e63">Tap to audit (one-tap) →</text>

    <text x="22" y="468" font-size="11" font-weight="700" fill="#5a6470" letter-spacing="1">ADJUST</text>
    <g font-size="13" fill="#1a2332">
      <text x="22" y="490">+ Household income</text>
      <text x="22" y="510">+ Severance schedule</text>
      <text x="22" y="530">+ HSA / RRSP draw</text>
    </g>

    <line x1="0" y1="555" x2="320" y2="555" stroke="#cdc4b3"/>
    <g font-size="10" fill="#1a2332" text-anchor="middle">
      <text x="48" y="582">Home</text>
      <text x="112" y="582">Plan</text>
      <text x="172" y="582" font-weight="700">Money</text>
      <text x="232" y="582">Docs</text>
      <text x="292" y="582">More</text>
    </g>
  </g>
  <text x="820" y="1425" font-size="12" font-weight="700" fill="#1a2332">07 · Runway · The one number</text>

  <!-- ===== FRAME 8: Day 30 wrap-up ===== -->
  <g transform="translate(1200 800)">
    <rect x="0" y="0" width="320" height="600" rx="34" fill="#fff" stroke="#1a2332" stroke-width="1.4"/>
    <rect x="120" y="14" width="80" height="14" rx="6" fill="#1a2332"/>
    <text x="22" y="50" font-size="11" fill="#5a6470">7:46</text>
    <text x="298" y="50" font-size="11" fill="#5a6470" text-anchor="end">day 30</text>

    <text x="160" y="100" font-size="22" font-weight="800" fill="#1a2332" text-anchor="middle">Day 30.</text>
    <text x="160" y="124" font-size="13" fill="#5a6470" text-anchor="middle">You got through 30 days.</text>

    <text x="22" y="170" font-size="11" font-weight="700" fill="#3e6e63" letter-spacing="1">WHAT YOU DID</text>
    <g font-size="12" fill="#1a2332">
      <text x="22" y="194">✓ Filed CA EDD claim</text>
      <text x="22" y="214">✓ Chose Covered California</text>
      <text x="22" y="234">✓ Reviewed severance, signed day 9</text>
      <text x="22" y="254">✓ Rolled over 401(k) to IRA</text>
      <text x="22" y="274">✓ Posted to LinkedIn (day 5, draft 3)</text>
      <text x="22" y="294">✓ Saved $284/mo from subs</text>
    </g>

    <text x="22" y="328" font-size="11" font-weight="700" fill="#7a5a1a" letter-spacing="1">STILL PENDING</text>
    <g font-size="12" fill="#1a2332">
      <text x="22" y="352">○ First EDD payment ETA day 34</text>
      <text x="22" y="372">○ 5 applications awaiting reply</text>
    </g>

    <rect x="22" y="402" width="276" height="92" rx="12" fill="#fdf6e6" stroke="#cdc4b3"/>
    <text x="160" y="430" font-size="13" font-weight="700" fill="#1a2332" text-anchor="middle">We'll step back now.</text>
    <text x="160" y="452" font-size="12" fill="#5a6470" text-anchor="middle">A weekly check-in is enough.</text>
    <text x="160" y="470" font-size="12" fill="#5a6470" text-anchor="middle">You don't need us every day</text>
    <text x="160" y="486" font-size="12" fill="#5a6470" text-anchor="middle">anymore.</text>

    <rect x="36" y="514" width="248" height="44" rx="22" fill="#1a2332"/>
    <text x="160" y="542" font-size="14" font-weight="700" fill="#fff" text-anchor="middle">Switch to weekly mode</text>
  </g>
  <text x="1200" y="1425" font-size="12" font-weight="700" fill="#1a2332">08 · Day 30 wrap-up</text>
</svg>
